<?xml version="1.0" encoding="utf-8"?>
<!-- Generator: Adobe Illustrator 15.1.0, SVG Export Plug-In  -->
<!DOCTYPE svg PUBLIC "-//W3C//DTD SVG 1.1//EN" "http://www.w3.org/Graphics/SVG/1.1/DTD/svg11.dtd" [
	<!ENTITY ns_flows "http://ns.adobe.com/Flows/1.0/">
]>
<svg version="1.1"
	 xmlns="http://www.w3.org/2000/svg" xmlns:xlink="http://www.w3.org/1999/xlink" xmlns:a="http://ns.adobe.com/AdobeSVGViewerExtensions/3.0/"
	 x="0px" y="0px" width="66px" height="43px" viewBox="0 0 66 43" enable-background="new 0 0 66 43" xml:space="preserve">
<defs>
</defs>
<g>
	<g>
		<path fill="#636565" d="M52.005,33.545c5.557,0,10.549-1.02,13.995-2.639c-1.205-4.717-4.747-8.482-9.305-9.968
			c2.415-2.478,4.022-6.521,4.022-9.615c0-4.791-3.85-8.676-8.597-8.676c-3.688,0-6.826,2.351-8.046,5.646
			C42.503,3.479,38.017,0,32.72,0c-5.217,0-9.641,3.376-11.277,8.076c-1.274-3.181-4.358-5.429-7.968-5.429
			c-4.747,0-8.594,3.885-8.594,8.676c0,3.144,1.656,7.268,4.136,9.734C4.542,22.652,1.106,26.467,0,31.189
			c3.412,1.455,8.135,2.355,13.359,2.355c1.135,0,2.237-0.053,3.317-0.134c-1.242,1.901-2.176,4.026-2.71,6.31
			C18.713,41.746,25.288,43,32.558,43c7.732,0,14.681-1.42,19.476-3.674c-0.54-2.113-1.421-4.086-2.574-5.862
			C50.294,33.512,51.14,33.545,52.005,33.545z M21.21,15.692c0.828,3.581,2.75,7.386,5.305,9.927
			c-0.465,0.166-0.92,0.354-1.368,0.554c-1.736-2.433-4.21-4.293-7.096-5.235C19.415,19.538,20.506,17.638,21.21,15.692z
			 M44.29,15.433c0.717,2.091,1.893,4.154,3.373,5.625c-2.733,0.974-5.07,2.783-6.734,5.114c-0.601-0.267-1.213-0.513-1.844-0.719
			C41.62,22.852,43.513,19.012,44.29,15.433z"/>
	</g>
</g>
</svg>
