<?xml version="1.0" encoding="utf-8"?>
<!-- Generator: Adobe Illustrator 15.1.0, SVG Export Plug-In  -->
<!DOCTYPE svg PUBLIC "-//W3C//DTD SVG 1.1//EN" "http://www.w3.org/Graphics/SVG/1.1/DTD/svg11.dtd" [
	<!ENTITY ns_flows "http://ns.adobe.com/Flows/1.0/">
]>
<svg version="1.1"
	 xmlns="http://www.w3.org/2000/svg" xmlns:xlink="http://www.w3.org/1999/xlink" xmlns:a="http://ns.adobe.com/AdobeSVGViewerExtensions/3.0/"
	 x="0px" y="0px" width="19px" height="16px" viewBox="0.074 -2.179 19 16" enable-background="new 0.074 -2.179 19 16"
	 xml:space="preserve">
<defs>
</defs>
<g>
	<g>
		<path fill="none" stroke="#FAA21B" stroke-width="1.5" stroke-miterlimit="10" d="M18.282,8.198
			c-0.276-1.136-1.086-2.043-2.129-2.402c0.553-0.597,0.92-1.571,0.92-2.317c0-1.155-0.88-2.091-1.966-2.091
			c-1.085,0-1.966,0.936-1.966,2.091c0,0.757,0.38,1.751,0.946,2.345c-0.814,0.307-1.464,0.958-1.828,1.782
			c-0.39-0.309-0.822-0.56-1.294-0.722c0.769-0.831,1.279-2.187,1.279-3.225c0-1.607-1.226-2.91-2.735-2.91
			c-1.511,0-2.736,1.303-2.736,2.91c0,1.055,0.527,2.438,1.317,3.264C7.658,7.087,7.262,7.325,6.901,7.612
			C6.525,6.76,5.846,6.089,4.994,5.796c0.552-0.597,0.92-1.571,0.92-2.317c0-1.155-0.88-2.091-1.966-2.091
			c-1.085,0-1.965,0.936-1.965,2.091c0,0.757,0.379,1.751,0.946,2.345C1.904,6.21,1.119,7.129,0.865,8.267
			c0.781,0.35,1.861,0.569,3.056,0.569c0.752,0,1.448-0.095,2.064-0.246C5.629,9.1,5.362,9.685,5.221,10.322
			c1.086,0.488,2.59,0.791,4.252,0.791c1.767,0,3.357-0.343,4.454-0.886c-0.141-0.58-0.383-1.115-0.703-1.588
			c0.564,0.122,1.189,0.196,1.857,0.196C16.352,8.836,17.495,8.589,18.282,8.198z"/>
	</g>
</g>
</svg>
