<?xml version="1.0" encoding="utf-8"?>
<!-- Generator: Adobe Illustrator 15.1.0, SVG Export Plug-In  -->
<!DOCTYPE svg PUBLIC "-//W3C//DTD SVG 1.1//EN" "http://www.w3.org/Graphics/SVG/1.1/DTD/svg11.dtd" [
	<!ENTITY ns_flows "http://ns.adobe.com/Flows/1.0/">
]>
<svg version="1.1"
	 xmlns="http://www.w3.org/2000/svg" xmlns:xlink="http://www.w3.org/1999/xlink" xmlns:a="http://ns.adobe.com/AdobeSVGViewerExtensions/3.0/"
	 x="0px" y="0px" width="43px" height="57px" viewBox="0 0 43 57" enable-background="new 0 0 43 57" xml:space="preserve">
<defs>
</defs>
<g>
	<g>
		<path fill="#636464" d="M22.93,29.41c0.598-1.035,0.012-2.493-1.308-3.255c-1.322-0.763-2.878-0.542-3.477,0.494
			c-0.598,1.037-0.012,2.494,1.309,3.256C20.776,30.668,22.333,30.447,22.93,29.41z M14.737,25.27c0.9,0.52,2.004,0.295,2.465-0.503
			c0.461-0.797,0.104-1.866-0.797-2.385c-0.9-0.52-2.004-0.295-2.465,0.503C13.479,23.683,13.836,24.75,14.737,25.27z M28.148,29.16
			c-0.9-0.519-2.004-0.294-2.465,0.504c-0.461,0.797-0.104,1.864,0.797,2.384c0.9,0.521,2.005,0.295,2.465-0.502
			C29.406,30.749,29.05,29.68,28.148,29.16z M22.99,32.065c-0.899-0.52-2.003-0.294-2.465,0.504
			c-0.46,0.798-0.104,1.866,0.797,2.386s2.004,0.295,2.464-0.501C24.248,33.655,23.892,32.586,22.99,32.065z M14.183,30.246
			c0.9,0.52,2.004,0.295,2.465-0.503c0.46-0.797,0.104-1.865-0.797-2.386c-0.9-0.52-2.004-0.294-2.465,0.503
			C12.925,28.659,13.283,29.727,14.183,30.246z M17.532,33.485c-1.241-0.719-2.762-0.408-3.396,0.691
			c-0.635,1.099-0.143,2.571,1.098,3.287c1.241,0.717,2.762,0.407,3.397-0.692C19.265,35.672,18.773,34.2,17.532,33.485z
			 M9.839,33.751c-1.241-0.717-2.762-0.406-3.396,0.692c-0.635,1.1-0.143,2.57,1.098,3.287c1.241,0.716,2.762,0.407,3.396-0.693
			C11.572,35.938,11.08,34.468,9.839,33.751z M35.086,2.668c-6.348-3.664-13.048-3.54-15.257,0.283l-0.062,0.133
			c-0.654,1.128-1.515,2.55-2.509,4.192C10.414,18.581-2.328,39.62,0.369,50.452c0.594,2.385,1.906,4.178,3.9,5.329
			c2.228,1.285,4.654,1.555,7.212,0.802c10.686-3.145,21.446-23.33,27.876-35.389c1.168-2.189,2.177-4.082,2.967-5.449
			C44.484,12.001,41.307,6.258,35.086,2.668z M41.091,15.034c-0.802,1.389-1.815,3.292-2.99,5.492
			c-5.907,11.079-16.903,31.704-27.004,34.677c-2.202,0.647-4.199,0.427-6.105-0.673c-1.673-0.967-2.732-2.42-3.236-4.446
			c-2.551-10.245,9.985-30.947,16.72-42.07c1.023-1.69,1.907-3.149,2.574-4.303l0.058-0.123c1.826-2.993,7.741-2.853,13.257,0.331
			C39.801,7.057,42.818,12.042,41.091,15.034z M33.014,6.25c-2.163-1.249-8.746-5.049-11.067-1.03L20.919,7.02
			c-4.651,8.053-4.948,11.455,2.457,15.729c3.502,2.021,5.942,3.077,8.054,2.491c2.477-0.687,4.078-3.478,6.986-8.544l0.914-1.589
			C41.587,11.198,35.135,7.474,33.014,6.25z M38.098,14.395l-0.916,1.592c-2.715,4.732-4.211,7.338-6.114,7.866
			c-1.423,0.394-3.312-0.244-6.97-2.355c-6.548-3.78-6.321-6.19-1.942-13.77l1.025-1.799c1.06-1.834,4.125-1.306,9.111,1.572
			C37.162,10.312,39.115,12.631,38.098,14.395z"/>
	</g>
</g>
</svg>
