<?xml version="1.0" encoding="utf-8"?>
<!-- Generator: Adobe Illustrator 15.1.0, SVG Export Plug-In  -->
<!DOCTYPE svg PUBLIC "-//W3C//DTD SVG 1.1//EN" "http://www.w3.org/Graphics/SVG/1.1/DTD/svg11.dtd" [
	<!ENTITY ns_flows "http://ns.adobe.com/Flows/1.0/">
]>
<svg version="1.1"
	 xmlns="http://www.w3.org/2000/svg" xmlns:xlink="http://www.w3.org/1999/xlink" xmlns:a="http://ns.adobe.com/AdobeSVGViewerExtensions/3.0/"
	 x="0px" y="0px" width="19px" height="16px" viewBox="0 0 19 16" enable-background="new 0 0 19 16" xml:space="preserve">
<defs>
</defs>
<g>
	<g>
		<path fill="#FAA21B" d="M16,2V0h-2.001v2H5V0H3v2H0v14h19V2H16z M18,15H1V3h2v1h2V3h9v1H16V3h2V15z M5.633,10.519H4.707
			c0.258-0.248,0.517-0.583,0.775-0.892c0.164-0.201,0.29-0.421,0.376-0.6c0.086-0.181,0.13-0.391,0.13-0.604
			c0-0.165-0.033-0.324-0.1-0.466C5.822,7.816,5.731,7.69,5.616,7.59C5.5,7.487,5.367,7.407,5.218,7.353
			c-0.15-0.056-0.307-0.085-0.471-0.085c-0.167,0-0.329,0.032-0.486,0.096C4.104,7.428,3.963,7.517,3.84,7.631
			C3.717,7.745,3.62,7.879,3.549,8.03c-0.071,0.15-0.107,0.31-0.107,0.475c0,0.123,0.037,0.227,0.11,0.308
			c0.073,0.08,0.173,0.121,0.298,0.121c0.097,0,0.172-0.022,0.227-0.066C4.13,8.822,4.169,8.771,4.193,8.711
			c0.024-0.059,0.051-0.147,0.083-0.264c0.07-0.256,0.216-0.384,0.437-0.384c0.069,0,0.131,0.019,0.187,0.056
			c0.055,0.038,0.098,0.087,0.129,0.147c0.03,0.062,0.045,0.127,0.045,0.197c0,0.137-0.051,0.278-0.154,0.423
			C4.816,9.032,4.68,9.2,4.509,9.394C4.478,9.428,4.431,9.48,4.369,9.55C4.307,9.62,4.227,9.709,4.13,9.817s-0.204,0.229-0.32,0.359
			c-0.118,0.131-0.182,0.202-0.193,0.214c-0.072,0.075-0.127,0.141-0.167,0.199c-0.039,0.058-0.062,0.121-0.066,0.189
			c0,0.124,0.033,0.26,0.099,0.324c0.082,0.08,0.212,0.163,0.39,0.163h1.76c0.124,0,0.228-0.077,0.312-0.146
			s0.125-0.184,0.125-0.302c0-0.122-0.042-0.173-0.124-0.242C5.863,10.509,5.759,10.519,5.633,10.519z M9.352,7.542
			c0-0.068-0.03-0.131-0.093-0.188C9.197,7.296,9.134,7.268,9.065,7.268c-0.09,0-0.169,0.053-0.239,0.16L8.722,7.583
			C8.49,7.372,8.21,7.268,7.883,7.268c-0.169,0-0.335,0.041-0.5,0.125c-0.165,0.083-0.307,0.19-0.426,0.322
			C6.638,8.065,6.479,8.593,6.479,9.296c0,0.5,0.093,0.919,0.28,1.256l-0.152,0.224c-0.01,0.018-0.028,0.041-0.053,0.073
			c-0.024,0.032-0.043,0.06-0.056,0.083c-0.013,0.023-0.02,0.05-0.02,0.078c0,0.072,0.032,0.136,0.094,0.189
			c0.063,0.054,0.133,0.08,0.208,0.08c0.065,0,0.118-0.019,0.159-0.054c0.041-0.037,0.081-0.088,0.121-0.153l0.052-0.085
			c0.245,0.195,0.5,0.292,0.769,0.292c0.25,0,0.47-0.061,0.659-0.182c0.189-0.121,0.343-0.279,0.462-0.476
			c0.119-0.197,0.207-0.414,0.263-0.648c0.057-0.236,0.085-0.47,0.085-0.7c0-0.454-0.093-0.865-0.28-1.233l0.211-0.32
			C9.329,7.635,9.352,7.575,9.352,7.542z M7.393,9.29c0-0.776,0.163-1.164,0.489-1.164c0.129,0,0.242,0.071,0.338,0.212L7.406,9.571
			C7.397,9.398,7.393,9.305,7.393,9.29z M8.391,9.752c-0.031,0.176-0.087,0.33-0.17,0.466s-0.195,0.203-0.338,0.203
			c-0.124,0-0.218-0.054-0.285-0.16l0.821-1.239c0.012,0.1,0.019,0.184,0.019,0.252C8.437,9.418,8.421,9.577,8.391,9.752z
			 M12.632,7.542c0-0.068-0.031-0.131-0.092-0.188c-0.063-0.058-0.127-0.086-0.194-0.086c-0.09,0-0.169,0.053-0.239,0.16
			l-0.105,0.155c-0.23-0.211-0.51-0.315-0.838-0.315c-0.169,0-0.336,0.041-0.5,0.125c-0.166,0.083-0.307,0.19-0.426,0.322
			C9.919,8.065,9.76,8.593,9.76,9.296c0,0.5,0.093,0.919,0.28,1.256l-0.152,0.224c-0.01,0.018-0.027,0.041-0.053,0.073
			c-0.024,0.032-0.043,0.06-0.057,0.083c-0.012,0.023-0.019,0.05-0.019,0.078c0,0.072,0.032,0.136,0.095,0.189
			s0.133,0.08,0.208,0.08c0.065,0,0.118-0.019,0.159-0.054c0.041-0.037,0.08-0.088,0.121-0.153l0.052-0.085
			c0.243,0.195,0.5,0.292,0.769,0.292c0.25,0,0.47-0.061,0.659-0.182c0.188-0.121,0.343-0.279,0.461-0.476
			c0.118-0.197,0.206-0.414,0.263-0.648c0.058-0.236,0.086-0.47,0.086-0.7c0-0.454-0.094-0.865-0.28-1.233l0.21-0.32
			C12.608,7.635,12.632,7.575,12.632,7.542z M10.673,9.29c0-0.776,0.164-1.164,0.49-1.164c0.129,0,0.241,0.071,0.338,0.212
			l-0.814,1.233C10.677,9.398,10.673,9.305,10.673,9.29z M11.671,9.752c-0.031,0.176-0.088,0.33-0.17,0.466
			s-0.195,0.203-0.338,0.203c-0.124,0-0.219-0.054-0.285-0.16l0.82-1.239c0.013,0.1,0.02,0.184,0.02,0.252
			C11.718,9.418,11.702,9.577,11.671,9.752z M15.077,8.729c-0.174-0.107-0.379-0.162-0.614-0.162c-0.11,0-0.239-0.032-0.386,0.006
			l0.059-0.546h1.002c0.122,0,0.224,0.019,0.307-0.05c0.083-0.069,0.124-0.138,0.124-0.256c0-0.121-0.041-0.244-0.123-0.311
			c-0.082-0.068-0.184-0.131-0.308-0.131h-1.369c-0.119,0-0.215,0.084-0.287,0.166s-0.115,0.201-0.127,0.316
			c-0.012,0.095-0.031,0.273-0.059,0.514c-0.028,0.241-0.051,0.439-0.068,0.588c-0.017,0.148-0.025,0.229-0.025,0.239
			c0,0.104,0.037,0.189,0.111,0.254c0.074,0.065,0.174,0.098,0.297,0.098c0.047-0.005,0.094-0.016,0.14-0.032l0.193-0.099
			c0.077-0.037,0.166-0.057,0.268-0.057c0.152,0,0.271,0.052,0.359,0.155c0.087,0.104,0.131,0.231,0.131,0.385
			c0,0.162-0.047,0.306-0.143,0.428c-0.096,0.124-0.225,0.186-0.389,0.186c-0.149,0-0.293-0.041-0.431-0.12l-0.188-0.11
			c-0.104-0.053-0.193-0.079-0.272-0.079c-0.104,0-0.192,0.043-0.268,0.126c-0.075,0.085-0.112,0.178-0.112,0.28
			c0,0.171,0.098,0.324,0.291,0.458c0.301,0.203,0.635,0.304,1.004,0.304c0.286,0,0.536-0.065,0.751-0.195
			c0.216-0.129,0.381-0.309,0.497-0.534c0.116-0.227,0.173-0.479,0.173-0.755c0-0.229-0.045-0.437-0.138-0.622
			C15.385,8.984,15.252,8.837,15.077,8.729z"/>
	</g>
</g>
</svg>
