<?xml version="1.0" encoding="utf-8"?>
<!-- Generator: Adobe Illustrator 15.1.0, SVG Export Plug-In  -->
<!DOCTYPE svg PUBLIC "-//W3C//DTD SVG 1.1//EN" "http://www.w3.org/Graphics/SVG/1.1/DTD/svg11.dtd" [
	<!ENTITY ns_flows "http://ns.adobe.com/Flows/1.0/">
]>
<svg version="1.1"
	 xmlns="http://www.w3.org/2000/svg" xmlns:xlink="http://www.w3.org/1999/xlink" xmlns:a="http://ns.adobe.com/AdobeSVGViewerExtensions/3.0/"
	 x="0px" y="0px" width="51px" height="33px" viewBox="0 0 51 33" enable-background="new 0 0 51 33" xml:space="preserve">
<defs>
</defs>
<g>
	<g>
		<path fill="#636565" d="M49.172,0H1.591C0.699,0,0,0.771,0,1.755v29.489C0,32.229,0.699,33,1.591,33h47.581
			C50.035,33,51,32.249,51,31.244V1.755C51,0.75,50.035,0,49.172,0z M48.875,30.894H2.125V2.106h46.75V30.894z M6.354,22.354
			c0.858,0.177,1.482,1.027,1.387,1.893c-0.095,0.863,0.48,1.277,1.28,0.92c0.799-0.355,1.809-0.03,2.244,0.724
			c0.435,0.755,1.147,0.755,1.582,0c0.435-0.754,1.445-1.079,2.244-0.724c0.799,0.357,1.375-0.057,1.279-0.92
			c-0.095-0.865,0.529-1.716,1.387-1.893c0.858-0.178,1.078-0.848,0.489-1.491c-0.59-0.644-0.59-1.696,0-2.339
			c0.589-0.645,0.37-1.314-0.489-1.492c-0.858-0.177-1.482-1.028-1.387-1.892c0.096-0.864-0.48-1.278-1.279-0.921
			c-0.799,0.356-1.809,0.031-2.244-0.723s-1.147-0.754-1.582,0s-1.445,1.08-2.244,0.723c-0.799-0.357-1.375,0.058-1.28,0.921
			s-0.529,1.714-1.387,1.892c-0.858,0.178-1.079,0.848-0.489,1.492c0.589,0.643,0.589,1.695,0,2.339
			C5.276,21.506,5.496,22.176,6.354,22.354z M10.19,16.231c0.274-0.154,0.573-0.272,0.896-0.353c0.323-0.082,0.687-0.122,1.09-0.122
			c0.507,0,0.959,0.088,1.357,0.265c0.398,0.177,0.707,0.429,0.927,0.757s0.329,0.695,0.329,1.101c0,0.305-0.038,0.586-0.115,0.846
			c-0.076,0.258-0.195,0.512-0.356,0.761c-0.161,0.249-0.343,0.513-0.608,0.788c-0.266,0.276-0.252,0.801-1.669,1.572v0.621h2.833
			v1.404H9.917v-1.622l1.583-1.917c0.547-0.566,0.739-0.953,0.906-1.16c0.168-0.207,0.202-0.385,0.269-0.533
			c0.066-0.148,0.058-0.305,0.058-0.467c0-0.203-0.086-0.361-0.219-0.479c-0.132-0.116-0.328-0.174-0.567-0.174
			c-0.246,0-0.5,0.068-0.752,0.209c-0.252,0.14-0.539,0.346-0.857,0.618l-1.164-1.349C9.577,16.64,9.916,16.385,10.19,16.231z
			 M46.041,7.021H6.375v2.106h39.666V7.021z M21.958,16.148h24.083v-2.107H21.958V16.148z M21.958,21.063h24.083v-2.105H21.958
			V21.063z M21.958,25.277h24.083V23.17H21.958V25.277z"/>
	</g>
</g>
</svg>
