<?xml version="1.0" encoding="utf-8"?>
<!-- Generator: Adobe Illustrator 15.1.0, SVG Export Plug-In  -->
<!DOCTYPE svg PUBLIC "-//W3C//DTD SVG 1.1//EN" "http://www.w3.org/Graphics/SVG/1.1/DTD/svg11.dtd" [
	<!ENTITY ns_flows "http://ns.adobe.com/Flows/1.0/">
]>
<svg version="1.1"
	 xmlns="http://www.w3.org/2000/svg" xmlns:xlink="http://www.w3.org/1999/xlink" xmlns:a="http://ns.adobe.com/AdobeSVGViewerExtensions/3.0/"
	 x="0px" y="0px" width="64px" height="53px" viewBox="0 0 64 53" enable-background="new 0 0 64 53" xml:space="preserve">
<defs>
</defs>
<g>
	<g>
		<path fill="#FFFFFF" d="M63.344,25.882L18.274,0.174c-0.364-0.207-0.806-0.231-1.189-0.062L0.779,7.275
			c-0.52,0.229-0.832,0.762-0.771,1.321L1.881,26.13c0.044,0.413,0.285,0.779,0.648,0.986l45.07,25.71
			c0.627,0.358,1.43,0.146,1.792-0.476l14.433-24.696C64.186,27.034,63.971,26.24,63.344,25.882z M47.775,49.933L4.42,25.201
			L2.716,9.261L17.54,2.749L60.896,27.48L47.775,49.933z M11.53,14.806c-1.764,3.02-0.714,6.893,2.342,8.635
			c3.054,1.742,6.975,0.705,8.739-2.314c1.763-3.018,0.712-6.89-2.342-8.633C17.213,10.751,13.293,11.789,11.53,14.806z
			 M20.337,19.831c-1.04,1.781-3.352,2.392-5.154,1.365c-1.802-1.028-2.422-3.313-1.382-5.093c1.041-1.781,3.353-2.391,5.155-1.364
			C20.759,15.766,21.378,18.05,20.337,19.831z M45.298,31.499c-1.005-0.571-1.979-0.685-2.923-0.337
			c-0.944,0.346-1.776,1.136-2.497,2.369c-0.692,1.184-0.956,2.287-0.794,3.311c0.163,1.023,0.731,1.813,1.707,2.37
			c1.032,0.589,2.028,0.707,2.988,0.354s1.799-1.144,2.517-2.372c0.69-1.184,0.945-2.286,0.764-3.31
			C46.879,32.861,46.291,32.065,45.298,31.499z M44.352,34.353c-0.098,0.381-0.311,0.853-0.638,1.413
			c-0.328,0.561-0.634,0.979-0.92,1.253c-0.285,0.273-0.55,0.343-0.794,0.202c-0.216-0.122-0.294-0.358-0.234-0.705
			c0.059-0.347,0.277-0.844,0.654-1.489c0.37-0.633,0.693-1.066,0.968-1.296c0.276-0.232,0.524-0.286,0.745-0.16
			C44.377,33.71,44.449,33.971,44.352,34.353z M34.181,28.927c1.038,0.592,2.038,0.71,2.993,0.354
			c0.956-0.354,1.795-1.149,2.516-2.384c0.691-1.183,0.946-2.285,0.766-3.308c-0.182-1.024-0.77-1.818-1.763-2.386
			c-1.004-0.573-1.979-0.686-2.923-0.338c-0.944,0.347-1.776,1.138-2.497,2.371c-0.695,1.189-0.962,2.295-0.8,3.318
			C32.636,27.578,33.204,28.369,34.181,28.927z M35.814,24.732c0.37-0.634,0.691-1.067,0.968-1.298
			c0.275-0.231,0.524-0.285,0.744-0.158c0.218,0.124,0.294,0.357,0.231,0.704c-0.063,0.345-0.282,0.841-0.658,1.485
			c-0.384,0.656-0.709,1.094-0.979,1.314c-0.27,0.221-0.51,0.271-0.727,0.147c-0.217-0.123-0.294-0.358-0.234-0.706
			C35.219,25.874,35.438,25.377,35.814,24.732z M48.038,26.771l-2.527-1.442l-14.089,8.359l2.529,1.441L48.038,26.771z"/>
	</g>
</g>
</svg>
