<?xml version="1.0" encoding="utf-8"?>
<!-- Generator: Adobe Illustrator 15.1.0, SVG Export Plug-In  -->
<!DOCTYPE svg PUBLIC "-//W3C//DTD SVG 1.1//EN" "http://www.w3.org/Graphics/SVG/1.1/DTD/svg11.dtd" [
	<!ENTITY ns_flows "http://ns.adobe.com/Flows/1.0/">
]>
<svg version="1.1"
	 xmlns="http://www.w3.org/2000/svg" xmlns:xlink="http://www.w3.org/1999/xlink" xmlns:a="http://ns.adobe.com/AdobeSVGViewerExtensions/3.0/"
	 x="0px" y="0px" width="53px" height="44px" viewBox="0 0 53 44" enable-background="new 0 0 53 44" xml:space="preserve">
<defs>
</defs>
<g>
	<g>
		<path fill="#636565" d="M52.457,21.488L15.133,0.144c-0.301-0.172-0.667-0.191-0.984-0.052L0.646,6.04
			c-0.431,0.19-0.689,0.633-0.64,1.096l1.552,14.557c0.037,0.343,0.236,0.647,0.537,0.819l37.324,21.345
			c0.52,0.296,1.184,0.121,1.483-0.395l11.951-20.504C53.154,22.443,52.976,21.785,52.457,21.488z M39.564,41.453L3.661,20.922
			L2.25,7.689l12.275-5.407L50.43,22.813L39.564,41.453z M9.548,12.292c-1.461,2.506-0.59,5.722,1.939,7.168
			c2.529,1.447,5.776,0.585,7.236-1.921c1.461-2.506,0.591-5.721-1.938-7.167C14.255,8.925,11.008,9.787,9.548,12.292z
			 M15.699,12.236c1.492,0.854,2.005,2.749,1.144,4.228c-0.862,1.478-2.775,1.987-4.268,1.133c-1.492-0.854-2.006-2.75-1.145-4.228
			C12.292,11.891,14.206,11.382,15.699,12.236z M37.512,26.15c-0.831-0.475-1.638-0.569-2.42-0.28
			c-0.781,0.288-1.472,0.943-2.068,1.968c-0.573,0.982-0.791,1.899-0.656,2.748c0.134,0.85,0.605,1.505,1.413,1.968
			c0.855,0.488,1.681,0.587,2.476,0.294c0.794-0.294,1.489-0.95,2.083-1.97c0.572-0.983,0.783-1.898,0.633-2.748
			C38.821,27.281,38.335,26.621,37.512,26.15z M36.729,28.519c-0.08,0.317-0.257,0.709-0.528,1.174
			c-0.271,0.465-0.524,0.812-0.761,1.039c-0.237,0.229-0.456,0.285-0.658,0.17c-0.179-0.102-0.243-0.298-0.194-0.586
			c0.05-0.289,0.23-0.701,0.543-1.236c0.306-0.525,0.573-0.886,0.802-1.078c0.228-0.19,0.433-0.235,0.616-0.13
			C36.75,27.985,36.811,28.201,36.729,28.519z M39.781,22.225l-2.093-1.197l-11.667,6.939l2.094,1.198L39.781,22.225z
			 M28.307,24.015c0.86,0.491,1.687,0.591,2.479,0.295c0.792-0.294,1.486-0.955,2.083-1.979c0.572-0.981,0.784-1.898,0.634-2.747
			c-0.15-0.85-0.637-1.509-1.459-1.98c-0.832-0.476-1.639-0.569-2.421-0.281s-1.472,0.944-2.068,1.969
			c-0.575,0.986-0.796,1.904-0.661,2.754C27.026,22.895,27.498,23.552,28.307,24.015z M29.659,20.533
			c0.307-0.527,0.574-0.886,0.802-1.078c0.228-0.192,0.434-0.236,0.617-0.132c0.179,0.103,0.241,0.297,0.19,0.584
			c-0.052,0.287-0.233,0.699-0.545,1.234c-0.317,0.545-0.588,0.909-0.81,1.091c-0.224,0.184-0.424,0.224-0.603,0.122
			c-0.179-0.102-0.244-0.296-0.194-0.585C29.166,21.48,29.347,21.068,29.659,20.533z"/>
	</g>
</g>
</svg>
