<?xml version="1.0" encoding="utf-8"?>
<!-- Generator: Adobe Illustrator 15.1.0, SVG Export Plug-In  -->
<!DOCTYPE svg PUBLIC "-//W3C//DTD SVG 1.1//EN" "http://www.w3.org/Graphics/SVG/1.1/DTD/svg11.dtd" [
	<!ENTITY ns_flows "http://ns.adobe.com/Flows/1.0/">
]>
<svg version="1.1"
	 xmlns="http://www.w3.org/2000/svg" xmlns:xlink="http://www.w3.org/1999/xlink" xmlns:a="http://ns.adobe.com/AdobeSVGViewerExtensions/3.0/"
	 x="0px" y="0px" width="19px" height="40px" viewBox="0 0 19 40" enable-background="new 0 0 19 40" xml:space="preserve">
<defs>
</defs>
<g>
	<g>
		<path fill="#636464" d="M15.04,23.117V1.482C15.04,0.664,14.362,0,13.529,0H5.471C4.638,0,3.96,0.664,3.96,1.482v21.635
			C1.476,24.868,0,27.679,0,30.686C0,35.821,4.262,40,9.5,40c5.238,0,9.5-4.179,9.5-9.314C19,27.679,17.524,24.868,15.04,23.117z
			 M9.5,39.013c-4.683,0-8.493-3.736-8.493-8.327c0-2.768,1.397-5.347,3.739-6.901l0.221-0.147v-6.393h4.98
			c0.278,0,0.503-0.221,0.503-0.494c0-0.272-0.226-0.494-0.503-0.494h-4.98V14.02h2.949c0.278,0,0.503-0.22,0.503-0.493
			s-0.225-0.495-0.503-0.495H4.967v-2.235h4.98c0.278,0,0.503-0.221,0.503-0.494c0-0.272-0.226-0.493-0.503-0.493h-4.98V7.573h2.949
			c0.278,0,0.503-0.22,0.503-0.493c0-0.273-0.225-0.495-0.503-0.495H4.967V4.35h4.98c0.278,0,0.503-0.221,0.503-0.494
			s-0.226-0.494-0.503-0.494h-4.98v-1.88c0-0.272,0.227-0.494,0.504-0.494h8.058c0.277,0,0.503,0.222,0.503,0.494v22.155
			l0.222,0.147c2.341,1.555,3.739,4.134,3.739,6.901C17.993,35.276,14.184,39.013,9.5,39.013z M13.407,25.011l-0.886-0.589v-5.016
			H6.478v5.016l-0.885,0.589c-1.925,1.278-3.075,3.398-3.075,5.675c0,3.774,3.132,6.846,6.982,6.846c3.85,0,6.981-3.071,6.981-6.846
			C16.481,28.409,15.332,26.289,13.407,25.011z"/>
	</g>
</g>
</svg>
