<?xml version="1.0" encoding="utf-8"?>
<!-- Generator: Adobe Illustrator 15.1.0, SVG Export Plug-In  -->
<!DOCTYPE svg PUBLIC "-//W3C//DTD SVG 1.1//EN" "http://www.w3.org/Graphics/SVG/1.1/DTD/svg11.dtd" [
	<!ENTITY ns_flows "http://ns.adobe.com/Flows/1.0/">
]>
<svg version="1.1"
	 xmlns="http://www.w3.org/2000/svg" xmlns:xlink="http://www.w3.org/1999/xlink" xmlns:a="http://ns.adobe.com/AdobeSVGViewerExtensions/3.0/"
	 x="0px" y="0px" width="67px" height="44px" viewBox="0 0 67 44" enable-background="new 0 0 67 44" xml:space="preserve">
<defs>
</defs>
<g>
	<g>
		<path fill="#FFFFFF" d="M64.599,0H2.09C0.918,0,0,1.027,0,2.34v39.319C0,42.972,0.918,44,2.09,44h62.508
			C65.732,44,67,42.999,67,41.659V2.34C67,1,65.732,0,64.599,0z M64.208,41.191H2.792V2.808h61.417V41.191z M8.348,29.805
			c1.127,0.235,1.947,1.37,1.822,2.523c-0.125,1.151,0.631,1.703,1.681,1.227c1.05-0.474,2.376-0.04,2.948,0.965
			c0.571,1.007,1.507,1.007,2.078,0c0.572-1.005,1.898-1.438,2.948-0.965c1.05,0.477,1.807-0.075,1.681-1.227
			c-0.125-1.153,0.695-2.288,1.823-2.523c1.127-0.237,1.416-1.13,0.642-1.988c-0.775-0.858-0.775-2.262,0-3.118
			c0.774-0.859,0.485-1.753-0.642-1.99c-1.128-0.236-1.948-1.37-1.823-2.521c0.126-1.152-0.631-1.705-1.681-1.229
			c-1.05,0.475-2.376,0.041-2.948-0.965c-0.571-1.005-1.507-1.005-2.078,0c-0.572,1.006-1.898,1.439-2.948,0.965
			c-1.05-0.477-1.806,0.076-1.681,1.229c0.125,1.151-0.695,2.285-1.822,2.521c-1.128,0.237-1.417,1.131-0.642,1.99
			c0.774,0.856,0.774,2.26,0,3.118C6.931,28.675,7.22,29.567,8.348,29.805z M13.387,21.642c0.361-0.205,0.753-0.362,1.178-0.471
			c0.425-0.109,0.902-0.162,1.432-0.162c0.666,0,1.26,0.117,1.783,0.353s0.929,0.572,1.217,1.009
			c0.289,0.438,0.433,0.927,0.433,1.469c0,0.406-0.05,0.781-0.151,1.127c-0.1,0.344-0.256,0.683-0.468,1.015
			c-0.211,0.332-0.45,0.684-0.799,1.051c-0.349,0.368-0.332,1.067-2.192,2.097v0.828h3.722v1.872h-6.514v-2.163l2.079-2.556
			c0.719-0.755,0.971-1.271,1.191-1.547c0.221-0.276,0.265-0.513,0.353-0.711c0.086-0.198,0.076-0.406,0.076-0.622
			c0-0.271-0.113-0.482-0.287-0.639c-0.173-0.154-0.431-0.231-0.746-0.231c-0.323,0-0.657,0.091-0.988,0.278
			c-0.331,0.187-0.708,0.461-1.125,0.824l-1.529-1.798C12.582,22.187,13.026,21.847,13.387,21.642z M60.485,9.361H8.375v2.809h52.11
			V9.361z M28.847,21.531h31.639v-2.81H28.847V21.531z M28.847,28.083h31.639v-2.807H28.847V28.083z M28.847,33.703h31.639v-2.81
			H28.847V33.703z"/>
	</g>
</g>
</svg>
