<?xml version="1.0" encoding="utf-8"?>
<!-- Generator: Adobe Illustrator 15.1.0, SVG Export Plug-In  -->
<!DOCTYPE svg PUBLIC "-//W3C//DTD SVG 1.1//EN" "http://www.w3.org/Graphics/SVG/1.1/DTD/svg11.dtd" [
	<!ENTITY ns_flows "http://ns.adobe.com/Flows/1.0/">
]>
<svg version="1.1"
	 xmlns="http://www.w3.org/2000/svg" xmlns:xlink="http://www.w3.org/1999/xlink" xmlns:a="http://ns.adobe.com/AdobeSVGViewerExtensions/3.0/"
	 x="0px" y="0px" width="57px" height="45px" viewBox="0 0 57 45" enable-background="new 0 0 57 45" xml:space="preserve">
<defs>
</defs>
<path fill="#636464" d="M4.046,45c-1.143,0-2.146-0.623-2.98-1.852c-1.827-2.688,0.323-6.678,1.442-8.413
	c-0.744-3.116-3.096-14.588-0.063-24.166C1.098,8.652-1.435,4.316,1.048,1.662c0.42-0.449,1.19-0.985,2.475-0.985
	c1.32,0,2.861,0.6,3.772,1.267c0.067-0.028,0.134-0.056,0.187-0.079l0.216-0.091c0.846-0.347,3.287-0.587,4.949-0.587
	c0.884,0,1.646,0.06,2.268,0.179c0.727,0.14,1.578,0.216,2.399,0.216c1.176,0,1.994-0.149,2.367-0.29
	c0.949-0.356,2.229-0.529,3.911-0.529c2.53,0,5.109,0.399,5.217,0.416l0.162,0.033c0.864,0.219,2.108,0.007,3.28-0.229
	c0.494-0.1,1.006-0.203,1.514-0.272c0.304-0.041,0.64-0.062,0.998-0.062c1.752,0,3.883,0.498,5.333,0.873
	c0.302-0.004,0.871-0.146,1.422-0.283c1.107-0.276,2.484-0.621,4.168-0.621c1.661,0,2.748,0.216,3.542,0.375
	c0.441,0.088,0.771,0.153,0.964,0.131c0.093-0.046,0.278-0.167,0.405-0.25C51.16,0.505,51.933,0,52.953,0
	c1.143,0,2.146,0.623,2.98,1.851c1.827,2.689-0.323,6.677-1.442,8.412c0.743,3.117,3.096,14.589,0.062,24.167
	c1.35,1.917,3.882,6.252,1.399,8.907c-0.42,0.449-1.19,0.984-2.475,0.984c-1.321,0-2.861-0.598-3.771-1.267
	c-0.067,0.027-0.134,0.057-0.187,0.079l-0.216,0.092c-0.847,0.346-3.288,0.586-4.949,0.586c-0.884,0-1.646-0.061-2.268-0.18
	c-0.9-0.172-1.863-0.268-2.713-0.268c-1.009,0-1.635,0.139-1.864,0.258c-1.359,0.703-4.576,0.756-5.529,0.756
	c-1.114,0-2.609-0.059-3.678-0.326c-1.2,0.012-3.86,0.07-5.066,0.234c-0.304,0.043-0.64,0.063-0.997,0.063h-0.001
	c-1.752,0-3.884-0.496-5.333-0.873c-0.302,0.004-0.872,0.146-1.423,0.285c-1.106,0.275-2.484,0.619-4.167,0.619
	c-1.661,0-2.748-0.215-3.542-0.373c-0.441-0.088-0.771-0.152-0.965-0.131c-0.092,0.045-0.277,0.166-0.404,0.248
	C5.84,44.494,5.067,45,4.046,45z M3.541,4.19C3.272,4.931,4.339,7.343,5.785,9.168L6.39,9.933L6.062,10.85
	C2.466,20.902,6.067,34.476,6.103,34.612l0.219,0.809l-0.49,0.681c-1.261,1.752-2.345,4.351-1.855,5.073
	c0.065,0.096,0.121,0.168,0.167,0.223c0.11-0.064,0.238-0.148,0.337-0.213c0.417-0.271,0.937-0.611,1.583-0.744
	c0.272-0.055,0.545-0.082,0.832-0.082c0.544,0,1.04,0.098,1.565,0.203c0.723,0.143,1.541,0.307,2.855,0.307
	c1.25,0,2.347-0.275,3.314-0.516c0.826-0.207,1.54-0.385,2.261-0.385c0.32,0,0.613,0.035,0.896,0.107
	c0.728,0.189,2.946,0.762,4.453,0.762c0.199,0,0.375-0.01,0.522-0.029c1.788-0.244,5.603-0.27,5.764-0.271l0.279-0.002l0.266,0.084
	c0.387,0.125,1.437,0.248,2.91,0.248c2.159,0,3.629-0.244,3.936-0.375c0.813-0.42,1.983-0.639,3.458-0.639
	c1.064,0,2.264,0.117,3.376,0.33c0.397,0.076,0.952,0.115,1.604,0.115c1.596,0,3.265-0.236,3.656-0.342l0.125-0.053
	c0.461-0.197,1.093-0.467,1.813-0.467c0.735,0,1.391,0.287,1.858,0.811c0.257,0.184,1.081,0.555,1.65,0.563
	c0.27-0.74-0.798-3.153-2.243-4.978l-0.604-0.767l0.328-0.916c3.595-10.054-0.005-23.626-0.041-23.763l-0.22-0.809l0.491-0.679
	c1.259-1.752,2.345-4.352,1.854-5.075c-0.064-0.096-0.12-0.167-0.166-0.223c-0.11,0.066-0.238,0.148-0.337,0.213
	c-0.418,0.272-0.938,0.612-1.582,0.744c-0.273,0.056-0.545,0.083-0.832,0.083c-0.544,0-1.04-0.098-1.565-0.203
	c-0.723-0.144-1.541-0.308-2.855-0.308c-1.25,0-2.347,0.274-3.315,0.516c-0.826,0.206-1.54,0.385-2.26,0.385
	c-0.32,0-0.613-0.035-0.896-0.109c-0.729-0.187-2.945-0.761-4.452-0.761c-0.2,0-0.376,0.01-0.522,0.03
	c-0.397,0.054-0.834,0.142-1.296,0.235c-0.93,0.187-1.984,0.399-3.076,0.399c-0.596,0-1.145-0.062-1.672-0.188
	c-0.413-0.061-2.571-0.362-4.605-0.362c-1.62,0-2.371,0.191-2.675,0.305c-1.191,0.448-2.768,0.514-3.603,0.514
	c-1.052,0-2.11-0.097-3.063-0.279c-0.397-0.076-0.952-0.116-1.604-0.116c-1.596,0-3.264,0.236-3.656,0.342L8.864,5.096
	C8.403,5.292,7.772,5.563,7.051,5.563c-0.735,0-1.392-0.286-1.86-0.809C4.935,4.569,4.111,4.199,3.541,4.19z"/>
</svg>
