<?xml version="1.0" encoding="utf-8"?>
<!-- Generator: Adobe Illustrator 15.1.0, SVG Export Plug-In  -->
<!DOCTYPE svg PUBLIC "-//W3C//DTD SVG 1.1//EN" "http://www.w3.org/Graphics/SVG/1.1/DTD/svg11.dtd" [
	<!ENTITY ns_flows "http://ns.adobe.com/Flows/1.0/">
]>
<svg version="1.1"
	 xmlns="http://www.w3.org/2000/svg" xmlns:xlink="http://www.w3.org/1999/xlink" xmlns:a="http://ns.adobe.com/AdobeSVGViewerExtensions/3.0/"
	 x="0px" y="0px" width="19px" height="16px" viewBox="-2.5 0 19 16" enable-background="new -2.5 0 19 16" xml:space="preserve">
<defs>
</defs>
<path fill="#FAA21B" d="M13.991,15.325L14,4.001c-0.023-0.245-0.756-1-1-1h-3C9.947,1.155,8.746,0,6.893,0
	C5.041,0,4.053,1.155,4,3.001H1c-0.252,0-0.988,0.746-1,1l0,11.373c-0.006,0.131,0.041,0.321,0.13,0.415
	C0.22,15.884,0.344,16,0.474,16h13.05c0.002,0,0.002,0,0.003,0C13.787,16,14,15.732,14,15.47C14,15.438,13.996,15.354,13.991,15.325
	z M6.893,0.955c1.332,0,2.054,0.663,2.107,2.046H5C5.053,1.618,5.563,0.955,6.893,0.955z M1,14.999V4.001h3v2h1v-2h4v2h1v-2h3
	v10.998H1z"/>
</svg>
