<?xml version="1.0" encoding="utf-8"?>
<!-- Generator: Adobe Illustrator 15.1.0, SVG Export Plug-In  -->
<!DOCTYPE svg PUBLIC "-//W3C//DTD SVG 1.1//EN" "http://www.w3.org/Graphics/SVG/1.1/DTD/svg11.dtd" [
	<!ENTITY ns_flows "http://ns.adobe.com/Flows/1.0/">
]>
<svg version="1.1"
	 xmlns="http://www.w3.org/2000/svg" xmlns:xlink="http://www.w3.org/1999/xlink" xmlns:a="http://ns.adobe.com/AdobeSVGViewerExtensions/3.0/"
	 x="0px" y="0px" width="41px" height="45px" viewBox="0 0 41 45" enable-background="new 0 0 41 45" xml:space="preserve">
<defs>
</defs>
<g>
	<g>
		<path fill="#636464" d="M0,0v45h41V0H0z M39.359,43.349H1.64V13.664c12.522-2.474,25.202-2.452,37.72,0.068V43.349z
			 M39.359,11.944C26.84,9.469,14.163,9.446,1.64,11.876V1.65h37.72V11.944z M9.627,26.118c0,5.939,4.799,10.771,10.697,10.771
			s10.697-4.832,10.697-10.771c0-5.941-4.799-10.773-10.697-10.773S9.627,20.177,9.627,26.118z M20.324,35.134
			c-3.722,0-6.918-2.3-8.268-5.561c1.471-0.207,2.845-0.919,3.859-2.02c1.14,1.219,2.75,1.951,4.501,2.012
			c1.799,0.065,3.495-0.6,4.721-1.798c0.947,0.932,2.171,1.536,3.48,1.734C27.286,32.8,24.073,35.134,20.324,35.134z M29.278,26.118
			c0,0.573-0.06,1.132-0.161,1.676c-1.307-0.119-2.49-0.78-3.27-1.877l-0.709-0.996l-0.708,0.995
			c-0.884,1.24-2.361,1.952-3.955,1.895c-1.594-0.054-3.022-0.86-3.821-2.156l-0.74-1.201l-0.741,1.2
			c-0.779,1.264-2.17,2.083-3.631,2.207c-0.11-0.564-0.171-1.146-0.171-1.742c0-4.973,4.017-9.018,8.954-9.018
			S29.278,21.146,29.278,26.118z M14.76,6.605H5.33v1.651h9.43V6.605z"/>
	</g>
</g>
</svg>
