<?xml version="1.0" encoding="utf-8"?>
<!-- Generator: Adobe Illustrator 15.1.0, SVG Export Plug-In  -->
<!DOCTYPE svg PUBLIC "-//W3C//DTD SVG 1.1//EN" "http://www.w3.org/Graphics/SVG/1.1/DTD/svg11.dtd" [
	<!ENTITY ns_flows "http://ns.adobe.com/Flows/1.0/">
]>
<svg version="1.1"
	 xmlns="http://www.w3.org/2000/svg" xmlns:xlink="http://www.w3.org/1999/xlink" xmlns:a="http://ns.adobe.com/AdobeSVGViewerExtensions/3.0/"
	 x="0px" y="0px" width="50px" height="28px" viewBox="0 0 50 28" enable-background="new 0 0 50 28" xml:space="preserve">
<defs>
</defs>
<g>
	<g>
		<path fill="#636464" d="M2.522,10.89c0.231-0.333,5.81-8.137,17.826-8.137c5.985,0,9.49,2.678,13.199,5.513
			c3.947,3.016,8.026,6.133,15.068,6.133c0.764,0,1.384-0.617,1.384-1.377s-0.62-1.377-1.384-1.377
			c-6.103,0-9.639-2.702-13.383-5.564C31.32,3.091,27.273,0,20.349,0C6.825,0,0.505,8.948,0.243,9.33
			c-0.431,0.625-0.271,1.479,0.357,1.91C1.227,11.671,2.088,11.513,2.522,10.89z M48.616,18.445c-6.103,0-9.639-2.701-13.383-5.563
			C31.32,9.892,27.273,6.8,20.349,6.8c-13.567,0-19.88,9.935-20.143,10.358c-0.401,0.645-0.199,1.494,0.451,1.893
			c0.651,0.4,1.503,0.199,1.904-0.449c0.056-0.09,5.748-9.048,17.788-9.048c5.985,0,9.49,2.678,13.199,5.513
			c3.947,3.014,8.026,6.133,15.068,6.133c0.764,0,1.384-0.617,1.384-1.377S49.38,18.445,48.616,18.445z M48.616,25.246
			c-6.103,0-9.639-2.701-13.383-5.564c-3.913-2.99-7.96-6.082-14.885-6.082C6.71,13.6,0.415,25.486,0.153,25.994
			c-0.349,0.676-0.082,1.506,0.598,1.854C0.954,27.951,1.17,28,1.383,28c0.502,0,0.986-0.273,1.231-0.748
			C2.67,27.143,8.38,16.354,20.349,16.354c5.985,0,9.49,2.678,13.199,5.514C37.495,24.881,41.574,28,48.616,28
			C49.38,28,50,27.383,50,26.623C50,25.861,49.38,25.246,48.616,25.246z"/>
	</g>
</g>
</svg>
