<?xml version="1.0" encoding="utf-8"?>
<!-- Generator: Adobe Illustrator 15.1.0, SVG Export Plug-In  -->
<!DOCTYPE svg PUBLIC "-//W3C//DTD SVG 1.1//EN" "http://www.w3.org/Graphics/SVG/1.1/DTD/svg11.dtd" [
	<!ENTITY ns_flows "http://ns.adobe.com/Flows/1.0/">
]>
<svg version="1.1"
	 xmlns="http://www.w3.org/2000/svg" xmlns:xlink="http://www.w3.org/1999/xlink" xmlns:a="http://ns.adobe.com/AdobeSVGViewerExtensions/3.0/"
	 x="0px" y="0px" width="21px" height="21px" viewBox="0 0 21 21" enable-background="new 0 0 21 21" xml:space="preserve">
<defs>
</defs>
<g>
	<g>
		<path fill="#1C7C3E" d="M10.5,0C4.71,0,0,4.71,0,10.5C0,16.289,4.71,21,10.5,21C16.289,21,21,16.289,21,10.5
			C21,4.71,16.289,0,10.5,0z M10.5,18.691c-4.517,0-8.192-3.675-8.192-8.191c0-4.517,3.675-8.191,8.192-8.191
			c4.516,0,8.191,3.674,8.191,8.191C18.691,15.017,15.016,18.691,10.5,18.691z M15.018,9.065h-2.791V6.273
			c0-0.899-0.73-1.629-1.629-1.629c-0.9,0-1.629,0.73-1.629,1.629v2.792H6.176c-0.899,0-1.628,0.73-1.628,1.629
			s0.729,1.629,1.628,1.629h2.792v2.791c0,0.899,0.729,1.63,1.629,1.63c0.899,0,1.629-0.73,1.629-1.63v-2.791h2.791
			c0.9,0,1.629-0.729,1.629-1.629S15.918,9.065,15.018,9.065z"/>
	</g>
</g>
</svg>
