<?xml version="1.0" encoding="utf-8"?>
<!-- Generator: Adobe Illustrator 18.0.0, SVG Export Plug-In . SVG Version: 6.00 Build 0)  -->
<!DOCTYPE svg PUBLIC "-//W3C//DTD SVG 1.1//EN" "http://www.w3.org/Graphics/SVG/1.1/DTD/svg11.dtd">
<svg version="1.1" id="Layer_1" xmlns="http://www.w3.org/2000/svg" xmlns:xlink="http://www.w3.org/1999/xlink" x="0px" y="0px"
	 viewBox="0 0 117 64" enable-background="new 0 0 117 64" xml:space="preserve">
<path fill="#F9A01B" d="M1.2,7l-1,0.1C1.3,7.1,2.4,7,3.5,7C33.6,7,58,31.4,58,61.5C58,31.4,82.4,7,112.5,7c1.5,0,2.9,0.1,4.4,0.2
	L115.1,7h1.9V0c-1.5-0.1-2.5,0-4,0C82.8,0,58,18.9,58,42.6C58,18.9,33.2,0,3,0C1.9,0,1.1,0,0,0v7H1.2z"/>
</svg>
