<?xml version="1.0" encoding="utf-8"?>
<!-- Generator: Adobe Illustrator 15.1.0, SVG Export Plug-In  -->
<!DOCTYPE svg PUBLIC "-//W3C//DTD SVG 1.1//EN" "http://www.w3.org/Graphics/SVG/1.1/DTD/svg11.dtd" [
	<!ENTITY ns_flows "http://ns.adobe.com/Flows/1.0/">
]>
<svg version="1.1"
	 xmlns="http://www.w3.org/2000/svg" xmlns:xlink="http://www.w3.org/1999/xlink" xmlns:a="http://ns.adobe.com/AdobeSVGViewerExtensions/3.0/"
	 x="0px" y="0px" width="81px" height="81px" viewBox="0 0 81 81" enable-background="new 0 0 81 81" xml:space="preserve">
<defs>
</defs>
<g>
	<g>
		<path fill="#CACACA" d="M40.5,0C18.168,0,0,18.168,0,40.5C0,62.834,18.168,81,40.5,81C62.832,81,81,62.834,81,40.5
			C81,18.168,62.832,0,40.5,0z M40.5,77.762C19.955,77.762,3.24,61.046,3.24,40.5S19.955,3.24,40.5,3.24
			c20.545,0,37.26,16.715,37.26,37.26S61.045,77.762,40.5,77.762z M30.628,29.808c-1.586,0-2.964,0.542-4.13,1.627
			s-1.75,2.351-1.75,3.798c0,0.701,0.107,1.378,0.323,2.034c0.216,0.656,0.584,1.254,1.106,1.797
			c0.544,0.565,1.259,1.006,2.144,1.322s2.03,0.475,3.438,0.475h1.906c-0.228,2.351-1.067,4.351-2.519,6
			c-1.453,1.651-3.461,3.098-6.025,4.34l1.495,2.408c3.241-1.424,6.011-3.515,8.311-6.273c2.3-2.757,3.45-5.491,3.45-8.204
			c0-2.916-0.668-5.199-2.005-6.849C35.034,30.633,33.12,29.808,30.628,29.808z M47.344,29.808c-1.588,0-2.965,0.542-4.131,1.627
			s-1.75,2.351-1.75,3.798c0,0.701,0.107,1.378,0.322,2.034c0.217,0.656,0.586,1.254,1.107,1.797
			c0.543,0.565,1.258,1.006,2.143,1.322s2.031,0.475,3.438,0.475h1.906c-0.227,2.351-1.066,4.351-2.518,6
			c-1.453,1.651-3.461,3.098-6.025,4.34l1.496,2.408c3.238-1.424,6.01-3.515,8.309-6.273c2.301-2.757,3.451-5.491,3.451-8.204
			c0-2.916-0.668-5.199-2.006-6.849C51.75,30.633,49.834,29.808,47.344,29.808z"/>
	</g>
</g>
</svg>
