<!DOCTYPE svg PUBLIC "-//W3C//DTD SVG 1.1//EN" "http://www.w3.org/Graphics/SVG/1.1/DTD/svg11.dtd" [
	<!ENTITY ns_flows "http://ns.adobe.com/Flows/1.0/">
]><svg xmlns="http://www.w3.org/2000/svg" width="66" height="43" viewBox="0 0 66 43"><path fill="#636565" d="M52.005 33.545c5.557 0 10.549-1.02 13.995-2.639-1.205-4.717-4.747-8.482-9.305-9.968 2.415-2.478 4.022-6.521 4.022-9.615 0-4.791-3.85-8.676-8.597-8.676-3.688 0-6.826 2.351-8.046 5.646-1.571-4.814-6.057-8.293-11.354-8.293-5.217 0-9.641 3.376-11.277 8.076-1.274-3.181-4.358-5.429-7.968-5.429-4.747 0-8.594 3.885-8.594 8.676 0 3.144 1.656 7.268 4.136 9.734-4.475 1.595-7.911 5.41-9.017 10.132 3.412 1.455 8.135 2.355 13.359 2.355 1.135 0 2.237-.053 3.317-.134-1.242 1.901-2.176 4.026-2.71 6.31 4.747 2.026 11.322 3.28 18.592 3.28 7.732 0 14.681-1.42 19.476-3.674-.54-2.113-1.421-4.086-2.574-5.862.834.048 1.68.081 2.545.081zm-30.795-17.853c.828 3.581 2.75 7.386 5.305 9.927-.465.166-.92.354-1.368.554-1.736-2.433-4.21-4.293-7.096-5.235 1.364-1.4 2.455-3.3 3.159-5.246zm23.08-.259c.717 2.091 1.893 4.154 3.373 5.625-2.733.974-5.07 2.783-6.734 5.114-.601-.267-1.213-.513-1.844-.719 2.535-2.601 4.428-6.441 5.205-10.02z"/></svg>