<!DOCTYPE svg PUBLIC "-//W3C//DTD SVG 1.1//EN" "http://www.w3.org/Graphics/SVG/1.1/DTD/svg11.dtd" [
	<!ENTITY ns_flows "http://ns.adobe.com/Flows/1.0/">
]><svg xmlns="http://www.w3.org/2000/svg" width="64" height="53" viewBox="0 0 64 53"><path fill="#fff" d="M63.344 25.882l-45.07-25.708c-.364-.207-.806-.231-1.189-.062l-16.306 7.163c-.52.229-.832.762-.771 1.321l1.873 17.534c.044.413.285.779.648.986l45.07 25.71c.627.358 1.43.146 1.792-.476l14.433-24.696c.362-.62.147-1.414-.48-1.772zm-15.569 24.051l-43.355-24.732-1.704-15.94 14.824-6.512 43.356 24.731-13.121 22.453zm-36.245-35.127c-1.764 3.02-.714 6.893 2.342 8.635 3.054 1.742 6.975.705 8.739-2.314 1.763-3.018.712-6.89-2.342-8.633-3.056-1.743-6.976-.705-8.739 2.312zm8.807 5.025c-1.04 1.781-3.352 2.392-5.154 1.365-1.802-1.028-2.422-3.313-1.382-5.093 1.041-1.781 3.353-2.391 5.155-1.364 1.803 1.027 2.422 3.311 1.381 5.092zm24.961 11.668c-1.005-.571-1.979-.685-2.923-.337-.944.346-1.776 1.136-2.497 2.369-.692 1.184-.956 2.287-.794 3.311.163 1.023.731 1.813 1.707 2.37 1.032.589 2.028.707 2.988.354s1.799-1.144 2.517-2.372c.69-1.184.945-2.286.764-3.31-.181-1.023-.769-1.819-1.762-2.385zm-.946 2.854c-.098.381-.311.853-.638 1.413-.328.561-.634.979-.92 1.253-.285.273-.55.343-.794.202-.216-.122-.294-.358-.234-.705.059-.347.277-.844.654-1.489.37-.633.693-1.066.968-1.296.276-.232.524-.286.745-.16.244.139.316.4.219.782zm-10.171-5.426c1.038.592 2.038.71 2.993.354.956-.354 1.795-1.149 2.516-2.384.691-1.183.946-2.285.766-3.308-.182-1.024-.77-1.818-1.763-2.386-1.004-.573-1.979-.686-2.923-.338-.944.347-1.776 1.138-2.497 2.371-.695 1.189-.962 2.295-.8 3.318.163 1.024.731 1.815 1.708 2.373zm1.633-4.195c.37-.634.691-1.067.968-1.298.275-.231.524-.285.744-.158.218.124.294.357.231.704-.063.345-.282.841-.658 1.485-.384.656-.709 1.094-.979 1.314-.27.221-.51.271-.727.147-.217-.123-.294-.358-.234-.706.06-.346.279-.843.655-1.488zm12.224 2.039l-2.527-1.442-14.089 8.359 2.529 1.441 14.087-8.358z"/></svg>