<!DOCTYPE svg PUBLIC "-//W3C//DTD SVG 1.1//EN" "http://www.w3.org/Graphics/SVG/1.1/DTD/svg11.dtd" [
	<!ENTITY ns_flows "http://ns.adobe.com/Flows/1.0/">
]><svg xmlns="http://www.w3.org/2000/svg" width="51" height="33" viewBox="0 0 51 33"><path fill="#636565" d="M49.172 0h-47.581c-.892 0-1.591.771-1.591 1.755v29.489c0 .985.699 1.756 1.591 1.756h47.581c.863 0 1.828-.751 1.828-1.756v-29.489c0-1.005-.965-1.755-1.828-1.755zm-.297 30.894h-46.75v-28.788h46.75v28.788zm-42.521-8.54c.858.177 1.482 1.027 1.387 1.893-.095.863.48 1.277 1.28.92.799-.355 1.809-.03 2.244.724.435.755 1.147.755 1.582 0 .435-.754 1.445-1.079 2.244-.724.799.357 1.375-.057 1.279-.92-.095-.865.529-1.716 1.387-1.893.858-.178 1.078-.848.489-1.491-.59-.644-.59-1.696 0-2.339.589-.645.37-1.314-.489-1.492-.858-.177-1.482-1.028-1.387-1.892.096-.864-.48-1.278-1.279-.921-.799.356-1.809.031-2.244-.723s-1.147-.754-1.582 0-1.445 1.08-2.244.723c-.799-.357-1.375.058-1.28.921s-.529 1.714-1.387 1.892c-.858.178-1.079.848-.489 1.492.589.643.589 1.695 0 2.339-.589.643-.369 1.313.489 1.491zm3.836-6.123c.274-.154.573-.272.896-.353.323-.082.687-.122 1.09-.122.507 0 .959.088 1.357.265.398.177.707.429.927.757s.329.695.329 1.101c0 .305-.038.586-.115.846-.076.258-.195.512-.356.761-.161.249-.343.513-.608.788-.266.276-.252.801-1.669 1.572v.621h2.833v1.404h-4.957v-1.622l1.583-1.917c.547-.566.739-.953.906-1.16.168-.207.202-.385.269-.533.066-.148.058-.305.058-.467 0-.203-.086-.361-.219-.479-.132-.116-.328-.174-.567-.174-.246 0-.5.068-.752.209-.252.14-.539.346-.857.618l-1.164-1.349c.403-.357.742-.612 1.016-.766zm35.851-9.21h-39.666v2.106h39.666v-2.106zm-24.083 9.127h24.083v-2.107h-24.083v2.107zm0 4.915h24.083v-2.105h-24.083v2.105zm0 4.214h24.083v-2.107h-24.083v2.107z"/></svg>