<!DOCTYPE svg PUBLIC "-//W3C//DTD SVG 1.1//EN" "http://www.w3.org/Graphics/SVG/1.1/DTD/svg11.dtd" [
	<!ENTITY ns_flows "http://ns.adobe.com/Flows/1.0/">
]><svg xmlns="http://www.w3.org/2000/svg" width="19" height="16" viewBox="0.074 -2.179 19 16" enable-background="new 0.074 -2.179 19 16"><path stroke="#FAA21B" stroke-width="1.5" stroke-miterlimit="10" d="M18.282 8.198c-.276-1.136-1.086-2.043-2.129-2.402.553-.597.92-1.571.92-2.317 0-1.155-.88-2.091-1.966-2.091-1.085 0-1.966.936-1.966 2.091 0 .757.38 1.751.946 2.345-.814.307-1.464.958-1.828 1.782-.39-.309-.822-.56-1.294-.722.769-.831 1.279-2.187 1.279-3.225 0-1.607-1.226-2.91-2.735-2.91-1.511 0-2.736 1.303-2.736 2.91 0 1.055.527 2.438 1.317 3.264-.432.164-.828.402-1.189.689-.376-.852-1.055-1.523-1.907-1.816.552-.597.92-1.571.92-2.317 0-1.155-.88-2.091-1.966-2.091-1.085 0-1.965.936-1.965 2.091 0 .757.379 1.751.946 2.345-1.025.386-1.81 1.305-2.064 2.443.781.35 1.861.569 3.056.569.752 0 1.448-.095 2.064-.246-.356.51-.623 1.095-.764 1.732 1.086.488 2.59.791 4.252.791 1.767 0 3.357-.343 4.454-.886-.141-.58-.383-1.115-.703-1.588.564.122 1.189.196 1.857.196 1.271.001 2.414-.246 3.201-.637z" fill="none"/></svg>