<!DOCTYPE svg PUBLIC "-//W3C//DTD SVG 1.1//EN" "http://www.w3.org/Graphics/SVG/1.1/DTD/svg11.dtd" [
	<!ENTITY ns_flows "http://ns.adobe.com/Flows/1.0/">
]><svg xmlns="http://www.w3.org/2000/svg" width="50" height="28" viewBox="0 0 50 28"><path fill="#636464" d="M2.522 10.89c.231-.333 5.81-8.137 17.826-8.137 5.985 0 9.49 2.678 13.199 5.513 3.947 3.016 8.026 6.133 15.068 6.133.764 0 1.384-.617 1.384-1.377s-.62-1.377-1.384-1.377c-6.103 0-9.639-2.702-13.383-5.564-3.912-2.99-7.959-6.081-14.883-6.081-13.524 0-19.844 8.948-20.106 9.33-.431.625-.271 1.479.357 1.91.627.431 1.488.273 1.922-.35zm46.094 7.555c-6.103 0-9.639-2.701-13.383-5.563-3.913-2.99-7.96-6.082-14.884-6.082-13.567 0-19.88 9.935-20.143 10.358-.401.645-.199 1.494.451 1.893.651.4 1.503.199 1.904-.449.056-.09 5.748-9.048 17.788-9.048 5.985 0 9.49 2.678 13.199 5.513 3.947 3.014 8.026 6.133 15.068 6.133.764 0 1.384-.617 1.384-1.377s-.62-1.378-1.384-1.378zm0 6.801c-6.103 0-9.639-2.701-13.383-5.564-3.913-2.99-7.96-6.082-14.885-6.082-13.638 0-19.933 11.886-20.195 12.394-.349.676-.082 1.506.598 1.854.203.103.419.152.632.152.502 0 .986-.273 1.231-.748.056-.109 5.766-10.898 17.735-10.898 5.985 0 9.49 2.678 13.199 5.514 3.947 3.013 8.026 6.132 15.068 6.132.764 0 1.384-.617 1.384-1.377 0-.762-.62-1.377-1.384-1.377z"/></svg>