<!DOCTYPE svg PUBLIC "-//W3C//DTD SVG 1.1//EN" "http://www.w3.org/Graphics/SVG/1.1/DTD/svg11.dtd" [
	<!ENTITY ns_flows "http://ns.adobe.com/Flows/1.0/">
]><svg xmlns="http://www.w3.org/2000/svg" width="57" height="45" viewBox="0 0 57 45"><path fill="#636464" d="M4.046 45c-1.143 0-2.146-.623-2.98-1.852-1.827-2.688.323-6.678 1.442-8.413-.744-3.116-3.096-14.588-.063-24.166-1.347-1.917-3.88-6.253-1.397-8.907.42-.449 1.19-.985 2.475-.985 1.32 0 2.861.6 3.772 1.267l.187-.079.216-.091c.846-.347 3.287-.587 4.949-.587.884 0 1.646.06 2.268.179.727.14 1.578.216 2.399.216 1.176 0 1.994-.149 2.367-.29.949-.356 2.229-.529 3.911-.529 2.53 0 5.109.399 5.217.416l.162.033c.864.219 2.108.007 3.28-.229.494-.1 1.006-.203 1.514-.272.304-.041.64-.062.998-.062 1.752 0 3.883.498 5.333.873.302-.004.871-.146 1.422-.283 1.107-.276 2.484-.621 4.168-.621 1.661 0 2.748.216 3.542.375.441.088.771.153.964.131l.405-.25c.563-.369 1.336-.874 2.356-.874 1.143 0 2.146.623 2.98 1.851 1.827 2.689-.323 6.677-1.442 8.412.743 3.117 3.096 14.589.062 24.167 1.35 1.917 3.882 6.252 1.399 8.907-.42.449-1.19.984-2.475.984-1.321 0-2.861-.598-3.771-1.267l-.187.079-.216.092c-.847.346-3.288.586-4.949.586-.884 0-1.646-.061-2.268-.18-.9-.172-1.863-.268-2.713-.268-1.009 0-1.635.139-1.864.258-1.359.703-4.576.756-5.529.756-1.114 0-2.609-.059-3.678-.326-1.2.012-3.86.07-5.066.234-.304.043-.64.063-.997.063h-.001c-1.752 0-3.884-.496-5.333-.873-.302.004-.872.146-1.423.285-1.106.275-2.484.619-4.167.619-1.661 0-2.748-.215-3.542-.373-.441-.088-.771-.152-.965-.131l-.404.248c-.564.371-1.337.877-2.358.877zm-.505-40.81c-.269.741.798 3.153 2.244 4.978l.605.765-.328.917c-3.596 10.052.005 23.626.041 23.762l.219.809-.49.681c-1.261 1.752-2.345 4.351-1.855 5.073l.167.223.337-.213c.417-.271.937-.611 1.583-.744.272-.055.545-.082.832-.082.544 0 1.04.098 1.565.203.723.143 1.541.307 2.855.307 1.25 0 2.347-.275 3.314-.516.826-.207 1.54-.385 2.261-.385.32 0 .613.035.896.107.728.189 2.946.762 4.453.762.199 0 .375-.01.522-.029 1.788-.244 5.603-.27 5.764-.271l.279-.002.266.084c.387.125 1.437.248 2.91.248 2.159 0 3.629-.244 3.936-.375.813-.42 1.983-.639 3.458-.639 1.064 0 2.264.117 3.376.33.397.076.952.115 1.604.115 1.596 0 3.265-.236 3.656-.342l.125-.053c.461-.197 1.093-.467 1.813-.467.735 0 1.391.287 1.858.811.257.184 1.081.555 1.65.563.27-.74-.798-3.153-2.243-4.978l-.604-.767.328-.916c3.595-10.054-.005-23.626-.041-23.763l-.22-.809.491-.679c1.259-1.752 2.345-4.352 1.854-5.075l-.166-.223-.337.213c-.418.272-.938.612-1.582.744-.273.056-.545.083-.832.083-.544 0-1.04-.098-1.565-.203-.723-.144-1.541-.308-2.855-.308-1.25 0-2.347.274-3.315.516-.826.206-1.54.385-2.26.385-.32 0-.613-.035-.896-.109-.729-.187-2.945-.761-4.452-.761-.2 0-.376.01-.522.03-.397.054-.834.142-1.296.235-.93.187-1.984.399-3.076.399-.596 0-1.145-.062-1.672-.188-.413-.061-2.571-.362-4.605-.362-1.62 0-2.371.191-2.675.305-1.191.448-2.768.514-3.603.514-1.052 0-2.11-.097-3.063-.279-.397-.076-.952-.116-1.604-.116-1.596 0-3.264.236-3.656.342l-.126.056c-.461.196-1.092.467-1.813.467-.735 0-1.392-.286-1.86-.809-.256-.185-1.08-.555-1.65-.564z"/></svg>