<!DOCTYPE svg PUBLIC "-//W3C//DTD SVG 1.1//EN" "http://www.w3.org/Graphics/SVG/1.1/DTD/svg11.dtd" [
	<!ENTITY ns_flows "http://ns.adobe.com/Flows/1.0/">
]><svg xmlns="http://www.w3.org/2000/svg" width="19" height="16" viewBox="-2.5 0 19 16" enable-background="new -2.5 0 19 16"><path fill="#FAA21B" d="M13.991 15.325l.009-11.324c-.023-.245-.756-1-1-1h-3c-.053-1.846-1.254-3.001-3.107-3.001-1.852 0-2.84 1.155-2.893 3.001h-3c-.252 0-.988.746-1 1v11.373c-.006.131.041.321.13.415.09.095.214.211.344.211h13.053c.26 0 .473-.268.473-.53l-.009-.145zm-7.098-14.37c1.332 0 2.054.663 2.107 2.046h-4c.053-1.383.563-2.046 1.893-2.046zm-5.893 14.044v-10.998h3v2h1v-2h4v2h1v-2h3v10.998h-12z"/></svg>