<!DOCTYPE svg PUBLIC "-//W3C//DTD SVG 1.1//EN" "http://www.w3.org/Graphics/SVG/1.1/DTD/svg11.dtd" [
	<!ENTITY ns_flows "http://ns.adobe.com/Flows/1.0/">
]><svg xmlns="http://www.w3.org/2000/svg" width="19" height="16" viewBox="0 0 19 16"><path fill="#FAA21B" d="M16 2v-2h-2.001v2h-8.999v-2h-2v2h-3v14h19v-14h-3zm2 13h-17v-12h2v1h2v-1h9v1h2v-1h2v12zm-12.367-4.481h-.926c.258-.248.517-.583.775-.892.164-.201.29-.421.376-.6.086-.181.13-.391.13-.604 0-.165-.033-.324-.1-.466-.066-.141-.157-.267-.272-.367-.116-.103-.249-.183-.398-.237-.15-.056-.307-.085-.471-.085-.167 0-.329.032-.486.096-.157.064-.298.153-.421.267-.123.114-.22.248-.291.399-.071.15-.107.31-.107.475 0 .123.037.227.11.308.073.08.173.121.298.121.097 0 .172-.022.227-.066l.116-.157.083-.264c.07-.256.216-.384.437-.384.069 0 .131.019.187.056l.129.147.045.197c0 .137-.051.278-.154.423-.104.146-.24.314-.411.508l-.14.156-.239.267-.32.359-.193.214-.167.199-.066.189c0 .124.033.26.099.324.082.08.212.163.39.163h1.76c.124 0 .228-.077.312-.146s.125-.184.125-.302c0-.122-.042-.173-.124-.242-.083-.066-.187-.056-.313-.056zm3.719-2.977c0-.068-.03-.131-.093-.188-.062-.058-.125-.086-.194-.086-.09 0-.169.053-.239.16l-.104.155c-.232-.211-.512-.315-.839-.315-.169 0-.335.041-.5.125-.165.083-.307.19-.426.322-.319.35-.478.878-.478 1.581 0 .5.093.919.28 1.256l-.152.224-.053.073-.056.083-.02.078c0 .072.032.136.094.189.063.054.133.08.208.08l.159-.054.121-.153.052-.085c.245.195.5.292.769.292.25 0 .47-.061.659-.182.189-.121.343-.279.462-.476.119-.197.207-.414.263-.648.057-.236.085-.47.085-.7 0-.454-.093-.865-.28-1.233l.211-.32.071-.178zm-1.959 1.748c0-.776.163-1.164.489-1.164.129 0 .242.071.338.212l-.814 1.233-.013-.281zm.998.462c-.031.176-.087.33-.17.466s-.195.203-.338.203c-.124 0-.218-.054-.285-.16l.821-1.239.019.252c-.001.144-.017.303-.047.478zm4.241-2.21c0-.068-.031-.131-.092-.188-.063-.058-.127-.086-.194-.086-.09 0-.169.053-.239.16l-.105.155c-.23-.211-.51-.315-.838-.315-.169 0-.336.041-.5.125-.166.083-.307.19-.426.322-.319.35-.478.878-.478 1.581 0 .5.093.919.28 1.256l-.152.224-.053.073-.057.083-.019.078c0 .072.032.136.095.189s.133.08.208.08l.159-.054.121-.153.052-.085c.243.195.5.292.769.292.25 0 .47-.061.659-.182.188-.121.343-.279.461-.476.118-.197.206-.414.263-.648.058-.236.086-.47.086-.7 0-.454-.094-.865-.28-1.233l.21-.32.07-.178zm-1.959 1.748c0-.776.164-1.164.49-1.164.129 0 .241.071.338.212l-.814 1.233-.014-.281zm.998.462c-.031.176-.088.33-.17.466s-.195.203-.338.203c-.124 0-.219-.054-.285-.16l.82-1.239.02.252c0 .144-.016.303-.047.478zm3.406-1.023c-.174-.107-.379-.162-.614-.162-.11 0-.239-.032-.386.006l.059-.546h1.002c.122 0 .224.019.307-.05.083-.069.124-.138.124-.256 0-.121-.041-.244-.123-.311-.082-.068-.184-.131-.308-.131h-1.369c-.119 0-.215.084-.287.166s-.115.201-.127.316l-.059.514-.068.588-.025.239c0 .104.037.189.111.254.074.065.174.098.297.098l.14-.032.193-.099c.077-.037.166-.057.268-.057.152 0 .271.052.359.155.087.104.131.231.131.385 0 .162-.047.306-.143.428-.096.124-.225.186-.389.186-.149 0-.293-.041-.431-.12l-.188-.11c-.104-.053-.193-.079-.272-.079-.104 0-.192.043-.268.126-.075.085-.112.178-.112.28 0 .171.098.324.291.458.301.203.635.304 1.004.304.286 0 .536-.065.751-.195.216-.129.381-.309.497-.534.116-.227.173-.479.173-.755 0-.229-.045-.437-.138-.622-.092-.189-.225-.336-.4-.444z"/></svg>