<!DOCTYPE svg PUBLIC "-//W3C//DTD SVG 1.1//EN" "http://www.w3.org/Graphics/SVG/1.1/DTD/svg11.dtd" [
	<!ENTITY ns_flows "http://ns.adobe.com/Flows/1.0/">
]><svg xmlns="http://www.w3.org/2000/svg" width="43" height="57" viewBox="0 0 43 57"><path fill="#636464" d="M22.93 29.41c.598-1.035.012-2.493-1.308-3.255-1.322-.763-2.878-.542-3.477.494-.598 1.037-.012 2.494 1.309 3.256 1.322.763 2.879.542 3.476-.495zm-8.193-4.14c.9.52 2.004.295 2.465-.503.461-.797.104-1.866-.797-2.385-.9-.52-2.004-.295-2.465.503-.461.798-.104 1.865.797 2.385zm13.411 3.89c-.9-.519-2.004-.294-2.465.504-.461.797-.104 1.864.797 2.384.9.521 2.005.295 2.465-.502.461-.797.105-1.866-.797-2.386zm-5.158 2.905c-.899-.52-2.003-.294-2.465.504-.46.798-.104 1.866.797 2.386s2.004.295 2.464-.501c.462-.799.106-1.868-.796-2.389zm-8.807-1.819c.9.52 2.004.295 2.465-.503.46-.797.104-1.865-.797-2.386-.9-.52-2.004-.294-2.465.503-.461.799-.103 1.867.797 2.386zm3.349 3.239c-1.241-.719-2.762-.408-3.396.691-.635 1.099-.143 2.571 1.098 3.287 1.241.717 2.762.407 3.397-.692.634-1.099.142-2.571-1.099-3.286zm-7.693.266c-1.241-.717-2.762-.406-3.396.692-.635 1.1-.143 2.57 1.098 3.287 1.241.716 2.762.407 3.396-.693.635-1.099.143-2.569-1.098-3.286zm25.247-31.083c-6.348-3.664-13.048-3.54-15.257.283l-.062.133c-.654 1.128-1.515 2.55-2.509 4.192-6.844 11.305-19.586 32.344-16.889 43.176.594 2.385 1.906 4.178 3.9 5.329 2.228 1.285 4.654 1.555 7.212.802 10.686-3.145 21.446-23.33 27.876-35.389 1.168-2.189 2.177-4.082 2.967-5.449 2.16-3.744-1.017-9.487-7.238-13.077zm6.005 12.366c-.802 1.389-1.815 3.292-2.99 5.492-5.907 11.079-16.903 31.704-27.004 34.677-2.202.647-4.199.427-6.105-.673-1.673-.967-2.732-2.42-3.236-4.446-2.551-10.245 9.985-30.947 16.72-42.07 1.023-1.69 1.907-3.149 2.574-4.303l.058-.123c1.826-2.993 7.741-2.853 13.257.331 5.436 3.138 8.453 8.123 6.726 11.115zm-8.077-8.784c-2.163-1.249-8.746-5.049-11.067-1.03l-1.028 1.8c-4.651 8.053-4.948 11.455 2.457 15.729 3.502 2.021 5.942 3.077 8.054 2.491 2.477-.687 4.078-3.478 6.986-8.544l.914-1.589c2.257-3.909-4.195-7.633-6.316-8.857zm5.084 8.145l-.916 1.592c-2.715 4.732-4.211 7.338-6.114 7.866-1.423.394-3.312-.244-6.97-2.355-6.548-3.78-6.321-6.19-1.942-13.77l1.025-1.799c1.06-1.834 4.125-1.306 9.111 1.572 4.87 2.811 6.823 5.13 5.806 6.894z"/></svg>