<!DOCTYPE svg PUBLIC "-//W3C//DTD SVG 1.1//EN" "http://www.w3.org/Graphics/SVG/1.1/DTD/svg11.dtd" [
	<!ENTITY ns_flows "http://ns.adobe.com/Flows/1.0/">
]><svg xmlns="http://www.w3.org/2000/svg" width="53" height="44" viewBox="0 0 53 44"><path fill="#636565" d="M52.457 21.488l-37.324-21.344c-.301-.172-.667-.191-.984-.052l-13.503 5.948c-.431.19-.689.633-.64 1.096l1.552 14.557c.037.343.236.647.537.819l37.324 21.345c.52.296 1.184.121 1.483-.395l11.951-20.504c.301-.515.123-1.173-.396-1.47zm-12.893 19.965l-35.903-20.531-1.411-13.233 12.275-5.407 35.905 20.531-10.866 18.64zm-30.016-29.161c-1.461 2.506-.59 5.722 1.939 7.168 2.529 1.447 5.776.585 7.236-1.921 1.461-2.506.591-5.721-1.938-7.167-2.53-1.447-5.777-.585-7.237 1.92zm6.151-.056c1.492.854 2.005 2.749 1.144 4.228-.862 1.478-2.775 1.987-4.268 1.133-1.492-.854-2.006-2.75-1.145-4.228.862-1.478 2.776-1.987 4.269-1.133zm21.813 13.914c-.831-.475-1.638-.569-2.42-.28-.781.288-1.472.943-2.068 1.968-.573.982-.791 1.899-.656 2.748.134.85.605 1.505 1.413 1.968.855.488 1.681.587 2.476.294.794-.294 1.489-.95 2.083-1.97.572-.983.783-1.898.633-2.748-.152-.849-.638-1.509-1.461-1.98zm-.783 2.369c-.08.317-.257.709-.528 1.174-.271.465-.524.812-.761 1.039-.237.229-.456.285-.658.17-.179-.102-.243-.298-.194-.586.05-.289.23-.701.543-1.236.306-.525.573-.886.802-1.078.228-.19.433-.235.616-.13.201.113.262.329.18.647zm3.052-6.294l-2.093-1.197-11.667 6.939 2.094 1.198 11.666-6.94zm-11.474 1.79c.86.491 1.687.591 2.479.295.792-.294 1.486-.955 2.083-1.979.572-.981.784-1.898.634-2.747-.15-.85-.637-1.509-1.459-1.98-.832-.476-1.639-.569-2.421-.281s-1.472.944-2.068 1.969c-.575.986-.796 1.904-.661 2.754.132.849.604 1.506 1.413 1.969zm1.352-3.482c.307-.527.574-.886.802-1.078.228-.192.434-.236.617-.132.179.103.241.297.19.584-.052.287-.233.699-.545 1.234-.317.545-.588.909-.81 1.091-.224.184-.424.224-.603.122-.179-.102-.244-.296-.194-.585.05-.289.231-.701.543-1.236z"/></svg>