<!DOCTYPE svg PUBLIC "-//W3C//DTD SVG 1.1//EN" "http://www.w3.org/Graphics/SVG/1.1/DTD/svg11.dtd" [
	<!ENTITY ns_flows "http://ns.adobe.com/Flows/1.0/">
]><svg xmlns="http://www.w3.org/2000/svg" width="41" height="45" viewBox="0 0 41 45"><path fill="#636464" d="M0 0v45h41v-45h-41zm39.359 43.349h-37.719v-29.685c12.522-2.474 25.202-2.452 37.72.068v29.617zm0-31.405c-12.519-2.475-25.196-2.498-37.719-.068v-10.226h37.72v10.294zm-29.732 14.174c0 5.939 4.799 10.771 10.697 10.771s10.697-4.832 10.697-10.771c0-5.941-4.799-10.773-10.697-10.773s-10.697 4.832-10.697 10.773zm10.697 9.016c-3.722 0-6.918-2.3-8.268-5.561 1.471-.207 2.845-.919 3.859-2.02 1.14 1.219 2.75 1.951 4.501 2.012 1.799.065 3.495-.6 4.721-1.798.947.932 2.171 1.536 3.48 1.734-1.331 3.299-4.544 5.633-8.293 5.633zm8.954-9.016c0 .573-.06 1.132-.161 1.676-1.307-.119-2.49-.78-3.27-1.877l-.709-.996-.708.995c-.884 1.24-2.361 1.952-3.955 1.895-1.594-.054-3.022-.86-3.821-2.156l-.74-1.201-.741 1.2c-.779 1.264-2.17 2.083-3.631 2.207-.11-.564-.171-1.146-.171-1.742 0-4.973 4.017-9.018 8.954-9.018s8.953 4.045 8.953 9.017zm-14.518-19.513h-9.43v1.651h9.43v-1.651z"/></svg>