<!DOCTYPE svg PUBLIC "-//W3C//DTD SVG 1.1//EN" "http://www.w3.org/Graphics/SVG/1.1/DTD/svg11.dtd" [
	<!ENTITY ns_flows "http://ns.adobe.com/Flows/1.0/">
]><svg xmlns="http://www.w3.org/2000/svg" width="19" height="40" viewBox="0 0 19 40"><path fill="#636464" d="M15.04 23.117v-21.635c0-.818-.678-1.482-1.511-1.482h-8.058c-.833 0-1.511.664-1.511 1.482v21.635c-2.484 1.751-3.96 4.562-3.96 7.569 0 5.135 4.262 9.314 9.5 9.314s9.5-4.179 9.5-9.314c0-3.007-1.476-5.818-3.96-7.569zm-5.54 15.896c-4.683 0-8.493-3.736-8.493-8.327 0-2.768 1.397-5.347 3.739-6.901l.221-.147v-6.393h4.98c.278 0 .503-.221.503-.494 0-.272-.226-.494-.503-.494h-4.98v-2.237h2.949c.278 0 .503-.22.503-.493s-.225-.495-.503-.495h-2.949v-2.235h4.98c.278 0 .503-.221.503-.494 0-.272-.226-.493-.503-.493h-4.98v-2.237h2.949c.278 0 .503-.22.503-.493s-.225-.495-.503-.495h-2.949v-2.235h4.98c.278 0 .503-.221.503-.494s-.226-.494-.503-.494h-4.98v-1.88c0-.272.227-.494.504-.494h8.058c.277 0 .503.222.503.494v22.155l.222.147c2.341 1.555 3.739 4.134 3.739 6.901 0 4.591-3.809 8.328-8.493 8.328zm3.907-14.002l-.886-.589v-5.016h-6.043v5.016l-.885.589c-1.925 1.278-3.075 3.398-3.075 5.675 0 3.774 3.132 6.846 6.982 6.846s6.981-3.071 6.981-6.846c0-2.277-1.149-4.397-3.074-5.675z"/></svg>