<!DOCTYPE svg PUBLIC "-//W3C//DTD SVG 1.1//EN" "http://www.w3.org/Graphics/SVG/1.1/DTD/svg11.dtd" [
	<!ENTITY ns_flows "http://ns.adobe.com/Flows/1.0/">
]><svg xmlns="http://www.w3.org/2000/svg" width="67" height="44" viewBox="0 0 67 44"><path fill="#fff" d="M64.599 0h-62.509c-1.172 0-2.09 1.027-2.09 2.34v39.319c0 1.313.918 2.341 2.09 2.341h62.508c1.134 0 2.402-1.001 2.402-2.341v-39.319c0-1.34-1.268-2.34-2.401-2.34zm-.391 41.191h-61.416v-38.383h61.417v38.383zm-55.86-11.386c1.127.235 1.947 1.37 1.822 2.523-.125 1.151.631 1.703 1.681 1.227 1.05-.474 2.376-.04 2.948.965.571 1.007 1.507 1.007 2.078 0 .572-1.005 1.898-1.438 2.948-.965 1.05.477 1.807-.075 1.681-1.227-.125-1.153.695-2.288 1.823-2.523 1.127-.237 1.416-1.13.642-1.988-.775-.858-.775-2.262 0-3.118.774-.859.485-1.753-.642-1.99-1.128-.236-1.948-1.37-1.823-2.521.126-1.152-.631-1.705-1.681-1.229-1.05.475-2.376.041-2.948-.965-.571-1.005-1.507-1.005-2.078 0-.572 1.006-1.898 1.439-2.948.965-1.05-.477-1.806.076-1.681 1.229.125 1.151-.695 2.285-1.822 2.521-1.128.237-1.417 1.131-.642 1.99.774.856.774 2.26 0 3.118-.775.858-.486 1.75.642 1.988zm5.039-8.163c.361-.205.753-.362 1.178-.471.425-.109.902-.162 1.432-.162.666 0 1.26.117 1.783.353s.929.572 1.217 1.009c.289.438.433.927.433 1.469 0 .406-.05.781-.151 1.127-.1.344-.256.683-.468 1.015-.211.332-.45.684-.799 1.051-.349.368-.332 1.067-2.192 2.097v.828h3.722v1.872h-6.514v-2.163l2.079-2.556c.719-.755.971-1.271 1.191-1.547.221-.276.265-.513.353-.711.086-.198.076-.406.076-.622 0-.271-.113-.482-.287-.639-.173-.154-.431-.231-.746-.231-.323 0-.657.091-.988.278-.331.187-.708.461-1.125.824l-1.529-1.798c.53-.478.974-.818 1.335-1.023zm47.098-12.281h-52.11v2.809h52.11v-2.809zm-31.638 12.17h31.639v-2.81h-31.639v2.81zm0 6.552h31.639v-2.807h-31.639v2.807zm0 5.62h31.639v-2.81h-31.639v2.81z"/></svg>