<!DOCTYPE svg PUBLIC "-//W3C//DTD SVG 1.1//EN" "http://www.w3.org/Graphics/SVG/1.1/DTD/svg11.dtd" [
	<!ENTITY ns_flows "http://ns.adobe.com/Flows/1.0/">
]><svg xmlns="http://www.w3.org/2000/svg" width="21" height="21" viewBox="0 0 21 21"><path fill="#1C7C3E" d="M10.5 0c-5.79 0-10.5 4.71-10.5 10.5 0 5.789 4.71 10.5 10.5 10.5 5.789 0 10.5-4.711 10.5-10.5 0-5.79-4.711-10.5-10.5-10.5zm0 18.691c-4.517 0-8.192-3.675-8.192-8.191 0-4.517 3.675-8.191 8.192-8.191 4.516 0 8.191 3.674 8.191 8.191 0 4.517-3.675 8.191-8.191 8.191zm4.518-9.626h-2.791v-2.792c0-.899-.73-1.629-1.629-1.629-.9 0-1.629.73-1.629 1.629v2.792h-2.793c-.899 0-1.628.73-1.628 1.629s.729 1.629 1.628 1.629h2.792v2.791c0 .899.729 1.63 1.629 1.63.899 0 1.629-.73 1.629-1.63v-2.791h2.791c.9 0 1.629-.729 1.629-1.629s-.728-1.629-1.628-1.629z"/></svg>