<!DOCTYPE svg PUBLIC "-//W3C//DTD SVG 1.1//EN" "http://www.w3.org/Graphics/SVG/1.1/DTD/svg11.dtd" [
	<!ENTITY ns_flows "http://ns.adobe.com/Flows/1.0/">
]><svg xmlns="http://www.w3.org/2000/svg" width="21" height="21" viewBox="0 0 21 21"><path fill="#F5841F" d="M10.5 0c-5.79 0-10.5 4.71-10.5 10.5s4.71 10.5 10.5 10.5c5.791 0 10.5-4.71 10.5-10.5s-4.709-10.5-10.5-10.5zm0 18.692c-4.518 0-8.192-3.676-8.192-8.192 0-4.518 3.674-8.191 8.192-8.191 4.516 0 8.191 3.674 8.191 8.191 0 4.517-3.674 8.192-8.191 8.192zm4.518-9.627h-8.842c-.899 0-1.628.729-1.628 1.629 0 .898.729 1.629 1.628 1.629h8.841c.9 0 1.629-.73 1.629-1.629 0-.9-.728-1.629-1.628-1.629z"/></svg>