<!DOCTYPE svg PUBLIC "-//W3C//DTD SVG 1.1//EN" "http://www.w3.org/Graphics/SVG/1.1/DTD/svg11.dtd" [
	<!ENTITY ns_flows "http://ns.adobe.com/Flows/1.0/">
]><svg xmlns="http://www.w3.org/2000/svg" width="81" height="81" viewBox="0 0 81 81"><path fill="#CACACA" d="M40.5 0c-22.332 0-40.5 18.168-40.5 40.5 0 22.334 18.168 40.5 40.5 40.5s40.5-18.166 40.5-40.5c0-22.332-18.168-40.5-40.5-40.5zm0 77.762c-20.545 0-37.26-16.716-37.26-37.262s16.715-37.26 37.26-37.26c20.545 0 37.26 16.715 37.26 37.26s-16.715 37.262-37.26 37.262zm-9.872-47.954c-1.586 0-2.964.542-4.13 1.627s-1.75 2.351-1.75 3.798c0 .701.107 1.378.323 2.034.216.656.584 1.254 1.106 1.797.544.565 1.259 1.006 2.144 1.322s2.03.475 3.438.475h1.906c-.228 2.351-1.067 4.351-2.519 6-1.453 1.651-3.461 3.098-6.025 4.34l1.495 2.408c3.241-1.424 6.011-3.515 8.311-6.273 2.3-2.757 3.45-5.491 3.45-8.204 0-2.916-.668-5.199-2.005-6.849-1.338-1.65-3.252-2.475-5.744-2.475zm16.716 0c-1.588 0-2.965.542-4.131 1.627s-1.75 2.351-1.75 3.798c0 .701.107 1.378.322 2.034.217.656.586 1.254 1.107 1.797.543.565 1.258 1.006 2.143 1.322s2.031.475 3.438.475h1.906c-.227 2.351-1.066 4.351-2.518 6-1.453 1.651-3.461 3.098-6.025 4.34l1.496 2.408c3.238-1.424 6.01-3.515 8.309-6.273 2.301-2.757 3.451-5.491 3.451-8.204 0-2.916-.668-5.199-2.006-6.849-1.336-1.65-3.252-2.475-5.742-2.475z"/></svg>